<svg width="14" height="10" viewBox="0 0 14 10" fill="none" xmlns="http://www.w3.org/2000/svg">
<path d="M4.48547 9.52314C4.37184 9.52314 4.26532 9.50525 4.1659 9.46945C4.06648 9.43423 3.97416 9.37401 3.88894 9.28879L0.224552 5.62441C0.0683182 5.46817 -0.00638989 5.26564 0.000427576 5.0168C0.00781316 4.76853 0.0896224 4.56628 0.245856 4.41005C0.402089 4.25381 0.600932 4.1757 0.842384 4.1757C1.08384 4.1757 1.28268 4.25381 1.43891 4.41005L4.48547 7.4566L11.7077 0.23435C11.8639 0.0781168 12.0665 0 12.3153 0C12.5636 0 12.7658 0.0781168 12.9221 0.23435C13.0783 0.390584 13.1564 0.592835 13.1564 0.841104C13.1564 1.08994 13.0783 1.29248 12.9221 1.44871L5.08199 9.28879C4.99677 9.37401 4.90446 9.43423 4.80503 9.46945C4.70561 9.50525 4.59909 9.52314 4.48547 9.52314Z" fill="black"/>
</svg>
