<svg width="20" height="20" viewBox="0 0 20 20" fill="none" xmlns="http://www.w3.org/2000/svg">
<path d="M9.99996 1.66667C5.39746 1.66667 1.66663 5.39751 1.66663 10C1.66663 11.06 1.88495 12.1342 2.26579 13.0992L2.91663 14.4267C3.32913 15.2842 3.18413 16.0925 2.62996 17.0833C2.32413 17.6317 2.70579 18.2925 3.33329 18.3075C4.18079 18.3267 5.58913 18.0567 6.66663 17.6567C7.66163 18.1158 8.88996 18.3333 9.99996 18.3333C14.6025 18.3333 18.3333 14.6025 18.3333 10C18.3333 5.39751 14.6025 1.66667 9.99996 1.66667ZM9.99996 3.33334C13.6816 3.33334 16.6666 6.31834 16.6666 10C16.6666 13.6817 13.6816 16.6667 9.99996 16.6667C9.04163 16.6667 7.83746 16.42 7.08329 16.0158C6.85996 15.8958 6.58663 15.8642 6.35413 15.9633C5.82246 16.1908 5.28579 16.3617 4.66162 16.4842C4.91162 15.6083 4.83746 14.6058 4.4008 13.6983L3.7758 12.4217C3.4983 11.7117 3.33329 10.85 3.33329 10C3.33329 6.31834 6.31829 3.33334 9.99996 3.33334ZM6.66663 9.16667C6.20663 9.16667 5.83329 9.54 5.83329 10C5.83329 10.46 6.20663 10.8333 6.66663 10.8333C7.12663 10.8333 7.49996 10.46 7.49996 10C7.49996 9.54 7.12663 9.16667 6.66663 9.16667ZM9.99996 9.16667C9.53996 9.16667 9.16663 9.54 9.16663 10C9.16663 10.46 9.53996 10.8333 9.99996 10.8333C10.46 10.8333 10.8333 10.46 10.8333 10C10.8333 9.54 10.46 9.16667 9.99996 9.16667ZM13.3333 9.16667C12.8733 9.16667 12.5 9.54 12.5 10C12.5 10.46 12.8733 10.8333 13.3333 10.8333C13.7933 10.8333 14.1666 10.46 14.1666 10C14.1666 9.54 13.7933 9.16667 13.3333 9.16667Z" fill="black"/>
</svg>
