<svg width="22" height="22" viewBox="0 0 22 22" fill="none" xmlns="http://www.w3.org/2000/svg">
<path d="M20.007 12.4356H15.8532V1.93428H20.007C20.2394 1.93428 20.4623 2.0265 20.6266 2.19097C20.791 2.35526 20.8833 2.57821 20.8833 2.81052V11.5593C20.8833 11.7917 20.791 12.0146 20.6266 12.1789C20.4623 12.3433 20.2394 12.4356 20.007 12.4356Z" stroke="black" stroke-width="1.76661" stroke-linecap="round" stroke-linejoin="round"/>
<path d="M15.853 12.4363L11.4013 19.552C11.2288 19.8333 10.9863 20.0651 10.6976 20.2248C10.4089 20.3845 10.0837 20.4667 9.7538 20.4634C9.49395 20.4728 9.23486 20.43 8.99185 20.3375C8.74882 20.2451 8.52681 20.1048 8.33889 19.9251C8.151 19.7454 8.00103 19.5298 7.89788 19.2911C7.79471 19.0524 7.74044 18.7955 7.73826 18.5355V13.4353L2.83347 13.4353C2.54922 13.4261 2.2701 13.3568 2.01447 13.2319C1.75885 13.1071 1.53254 12.9296 1.35041 12.7111C1.16827 12.4926 1.03454 12.238 0.957867 11.9641C0.881196 11.6901 0.863353 11.4031 0.905575 11.1218L2.30773 2.63597C2.36744 2.15262 2.60187 1.70779 2.9665 1.38503C3.33113 1.06227 3.80122 0.883847 4.28827 0.883317H12.9962C13.5435 0.881197 14.0837 1.00716 14.5736 1.25148L15.8355 1.88233" stroke="black" stroke-width="1.76661" stroke-linecap="round" stroke-linejoin="round"/>
<path d="M15.853 12.436L15.853 2.49251" stroke="black" stroke-width="1.76661" stroke-linecap="round" stroke-linejoin="round"/>
</svg>
