<svg width="20" height="21" viewBox="0 0 20 21" fill="none" xmlns="http://www.w3.org/2000/svg">
<path d="M19.4964 11.6319H17.1092V1.41763H19.4964C19.6299 1.41763 19.758 1.50733 19.8525 1.6673C19.9469 1.82711 20 2.04396 20 2.26991V10.7795C20 11.0056 19.9469 11.2224 19.8525 11.3822C19.758 11.5421 19.6299 11.6319 19.4964 11.6319Z" fill="black"/>
<path d="M15.5144 11.9732L10.9008 19.3477C10.722 19.6392 10.4707 19.8794 10.1715 20.045C9.87228 20.2105 9.53528 20.2957 9.19335 20.2923C8.92404 20.302 8.65553 20.2576 8.40368 20.1618C8.15181 20.066 7.92172 19.9206 7.72697 19.7344C7.53224 19.5481 7.37682 19.3247 7.26992 19.0773C7.163 18.83 7.10675 18.5637 7.1045 18.2942L7.1045 13.0085L2.02132 13.0085C1.72673 12.999 1.43746 12.9272 1.17253 12.7978C0.907607 12.6684 0.673074 12.4845 0.484312 12.258C0.29555 12.0315 0.156956 11.7677 0.0774965 11.4838C-0.00196279 11.1999 -0.0204553 10.9024 0.0233022 10.6109L1.47646 1.81643C1.53834 1.3155 1.78129 0.854494 2.15918 0.519996C2.53707 0.185498 3.02426 0.000581336 3.52903 3.20779e-05H12.5537C13.1209 -0.00216495 13.6808 0.128375 14.1884 0.381583L15.4962 1.03538" fill="black"/>
</svg>
