<svg width="20" height="23" viewBox="0 0 20 23" fill="none" xmlns="http://www.w3.org/2000/svg">
<path d="M12.4223 2.66667C12.1635 2.66667 11.9269 2.52045 11.8112 2.28898L10.8555 0.377684C10.7398 0.146215 10.5032 0 10.2444 0H0.683237C0.305896 0 0 0.305895 0 0.683236V21.9834C0 22.3608 0.305895 22.6667 0.683236 22.6667H1.98343C2.36077 22.6667 2.66667 22.3608 2.66667 21.9834V14.0166C2.66667 13.6392 2.97256 13.3333 3.3499 13.3333H8.91107C9.16986 13.3333 9.40644 13.4795 9.52217 13.711L10.4778 15.6223C10.5936 15.8538 10.8301 16 11.0889 16H19.3168C19.6941 16 20 15.6941 20 15.3168V3.3499C20 2.97256 19.6941 2.66667 19.3168 2.66667H12.4223ZM17.3333 12.6501C17.3333 13.0274 17.0274 13.3333 16.6501 13.3333H12.4223C12.1635 13.3333 11.9269 13.1871 11.8112 12.9556L10.8555 11.0444C10.7398 10.8129 10.5032 10.6667 10.2444 10.6667H3.3499C2.97256 10.6667 2.66667 10.3608 2.66667 9.98343V3.3499C2.66667 2.97256 2.97256 2.66667 3.3499 2.66667H8.91107C9.16986 2.66667 9.40644 2.81288 9.52217 3.04435L10.4778 4.95565C10.5936 5.18712 10.8301 5.33333 11.0889 5.33333H16.6501C17.0274 5.33333 17.3333 5.63923 17.3333 6.01657V12.6501Z" fill="black"/>
</svg>
