<svg width="28" height="26" viewBox="0 0 28 26" fill="none" xmlns="http://www.w3.org/2000/svg">
<path d="M1.75963 12.9124H5.91341V23.4137H1.75963C1.52721 23.4137 1.30431 23.3215 1.13997 23.157C0.975627 22.9927 0.883301 22.7698 0.883301 22.5375V13.7887C0.883301 13.5563 0.975627 13.3334 1.13997 13.1691C1.30431 13.0047 1.52721 12.9124 1.75963 12.9124Z" stroke="black" stroke-width="1.76661" stroke-linecap="round" stroke-linejoin="round"/>
<path d="M5.91357 12.9117L10.3653 5.79597C10.5378 5.51473 10.7803 5.28295 11.069 5.12323C11.3577 4.96351 11.6829 4.88131 12.0128 4.8846C12.2726 4.87522 12.5317 4.91802 12.7748 5.01049C13.0178 5.10295 13.2398 5.24318 13.4277 5.42292C13.6156 5.60265 13.7656 5.81821 13.8687 6.0569C13.9719 6.29557 14.0262 6.5525 14.0283 6.81251V11.9127H18.9331C19.2174 11.9219 19.4965 11.9912 19.7521 12.1161C20.0078 12.2409 20.2341 12.4184 20.4162 12.6369C20.5983 12.8554 20.7321 13.11 20.8087 13.3839C20.8854 13.6579 20.9032 13.9449 20.861 14.2262L19.4589 22.712C19.3992 23.1954 19.1647 23.6402 18.8001 23.963C18.4355 24.2857 17.9654 24.4642 17.4783 24.4647H8.77039C8.22308 24.4668 7.68287 24.3409 7.193 24.0965L5.9311 23.4657" stroke="black" stroke-width="1.76661" stroke-linecap="round" stroke-linejoin="round"/>
<path d="M13.8833 5.3833L15.8902 1.79594C16.0628 1.5147 16.3052 1.28292 16.5939 1.1232C16.8826 0.963482 17.2078 0.881281 17.5377 0.884567C17.7976 0.875187 18.0567 0.917991 18.2997 1.01046C18.5427 1.10292 18.7647 1.24315 18.9526 1.42289C19.1405 1.60262 19.2905 1.81818 19.3937 2.05687C19.4968 2.29554 19.5511 2.55247 19.5533 2.81248V7.91269H24.4581C24.7423 7.92191 25.0214 7.9912 25.2771 8.11603C25.5327 8.24084 25.759 8.41833 25.9411 8.63686C26.1233 8.85539 26.257 9.10998 26.3337 9.38391C26.4103 9.65784 26.4282 9.94489 26.386 10.2262L24.9838 18.712C24.9241 19.1954 24.6897 19.6402 24.325 19.9629C23.9604 20.2857 20.8703 20.3828 20.3833 20.3833" stroke="black" stroke-width="1.76661" stroke-linecap="round" stroke-linejoin="round"/>
<path d="M5.91357 12.912V22.8555" stroke="black" stroke-width="1.76661" stroke-linecap="round" stroke-linejoin="round"/>
</svg>
