<svg width="28" height="25" viewBox="0 0 28 25" fill="none" xmlns="http://www.w3.org/2000/svg">
<path d="M0.500299 13.1959H2.87171V23.3426H0.500299C0.36761 23.3426 0.240358 23.2535 0.146534 23.0946C0.0527095 22.9359 0 22.7204 0 22.496V14.0426C0 13.8181 0.0527095 13.6027 0.146534 13.4439C0.240358 13.2851 0.36761 13.1959 0.500299 13.1959Z" fill="black"/>
<path d="M4.48572 12.8208L9.09937 5.44622C9.27817 5.15475 9.52942 4.91454 9.82864 4.74901C10.1279 4.58348 10.4649 4.49829 10.8068 4.50169C11.0761 4.49197 11.3446 4.53633 11.5965 4.63216C11.8483 4.72799 12.0784 4.87332 12.2732 5.0596C12.4679 5.24587 12.6233 5.46927 12.7302 5.71664C12.8371 5.96399 12.8934 6.23027 12.8956 6.49973V11.7855H17.9788C18.2734 11.795 18.5627 11.8668 18.8276 11.9962C19.0926 12.1255 19.3271 12.3095 19.5159 12.536C19.7046 12.7624 19.8432 13.0263 19.9227 13.3102C20.0021 13.5941 20.0206 13.8916 19.9769 14.1831L18.5237 22.9776C18.4618 23.4785 18.2189 23.9395 17.841 24.274C17.4631 24.6085 16.9759 24.7934 16.4711 24.794H7.44644C6.87922 24.7962 6.31936 24.6656 5.81168 24.4124L4.50388 23.7586" fill="black"/>
<path d="M17.6543 0.501649C17.3243 0.498363 16.9209 0.480182 16.7104 0.740282C16.5 1.00038 14.4902 5.00038 14.4902 5.00038L14.5 10.282H16.7596L17.9584 10.2959C18.7211 10.3644 18.6381 10.3193 19.0692 10.4832C19.5002 10.647 21.6908 11.3629 21.532 13.9692C21.3733 16.5756 21 18.0004 20.6159 20.0004C21.7038 19.9588 23.7237 19.7449 23.9999 19.5004C24.3646 19.1776 25.0406 18.8124 25.1003 18.3291L26.5025 9.84327C26.5447 9.56197 26.5269 9.27492 26.4502 9.00099C26.3735 8.72706 26.2398 8.47247 26.0577 8.25394C25.8755 8.03541 25.6492 7.85792 25.3936 7.73311C25.138 7.60828 24.8588 7.53899 24.5746 7.52977H19.6698V2.42956C19.6676 2.16956 19.6134 1.91262 19.5102 1.67395C19.407 1.43527 19.2571 1.2197 19.0692 1.03997C18.8813 0.860235 18.6592 0.720002 18.4162 0.627538C18.1732 0.535073 17.9141 0.492269 17.6543 0.501649Z" fill="black" stroke="black" stroke-linecap="round" stroke-linejoin="round"/>
</svg>
