<svg width="27" height="27" viewBox="0 0 27 27" fill="none" xmlns="http://www.w3.org/2000/svg">
<path d="M1.17029 13.125C1.17029 11.0462 1.17029 10.0068 1.65199 9.09319C2.1337 8.17956 3.03835 7.50314 4.84764 6.15029L6.60273 4.83797C9.87302 2.39271 11.5082 1.17007 13.4559 1.17007C15.4037 1.17007 17.0388 2.39271 20.3091 4.83797L22.0642 6.15029C23.8735 7.50314 24.7781 8.17956 25.2598 9.09319C25.7415 10.0068 25.7415 11.0462 25.7415 13.125V19.6172C25.7415 22.5041 25.7415 23.9476 24.7134 24.8445C23.6853 25.7413 22.0306 25.7413 18.7212 25.7413H8.19065C4.88122 25.7413 3.2265 25.7413 2.1984 24.8445C1.17029 23.9476 1.17029 22.5041 1.17029 19.6172V13.125Z" stroke="black" stroke-width="2.34012"/>
<path d="M17.5511 25.7413V17.7947C17.5511 17.0138 16.9181 16.3809 16.1373 16.3809H10.7745C9.99371 16.3809 9.36072 17.0138 9.36072 17.7947V25.7413" stroke="black" stroke-width="2.34012" stroke-linecap="round" stroke-linejoin="round"/>
</svg>
