<svg width="22" height="19" viewBox="0 0 22 19" fill="none" xmlns="http://www.w3.org/2000/svg">
<path d="M1.04761 9.41268L0.523825 8.88889L4.18425e-05 9.41268L0.523825 9.93646L1.04761 9.41268ZM21.0476 10.1534C21.4567 10.1534 21.7883 9.82178 21.7883 9.41268C21.7883 9.00358 21.4567 8.67194 21.0476 8.67194V9.41268V10.1534ZM9.9365 0.523788L9.41271 5.66244e-06L0.523825 8.88889L1.04761 9.41268L1.57139 9.93646L10.4603 1.04757L9.9365 0.523788ZM1.04761 9.41268L0.523825 9.93646L9.41271 18.8253L9.9365 18.3016L10.4603 17.7778L1.57139 8.88889L1.04761 9.41268ZM1.04761 9.41268V10.1534H21.0476V9.41268V8.67194H1.04761V9.41268Z" fill="black"/>
</svg>
