<svg width="20" height="21" viewBox="0 0 20 21" fill="none" xmlns="http://www.w3.org/2000/svg">
<path d="M0.500299 8.69553H2.87171V18.8422H0.500299C0.36761 18.8422 0.240358 18.7531 0.146534 18.5942C0.0527095 18.4355 0 18.2201 0 17.9956V9.54226C0 9.31769 0.0527095 9.10233 0.146534 8.94353C0.240358 8.78475 0.36761 8.69553 0.500299 8.69553Z" fill="black"/>
<path d="M4.48572 8.32043L9.09937 0.945837C9.27817 0.654364 9.52942 0.414154 9.82864 0.248626C10.1279 0.0830973 10.4649 -0.00209282 10.8068 0.00131259C11.0761 -0.0084093 11.3446 0.0359525 11.5965 0.13178C11.8483 0.227607 12.0784 0.372941 12.2732 0.559214C12.4679 0.745486 12.6233 0.968888 12.7302 1.21626C12.8371 1.46361 12.8934 1.72989 12.8956 1.99935V7.28508H17.9788C18.2734 7.29463 18.5627 7.36644 18.8276 7.49581C19.0926 7.62516 19.3271 7.80911 19.5159 8.03558C19.7046 8.26206 19.8432 8.52591 19.9227 8.8098C20.0021 9.0937 20.0206 9.39119 19.9769 9.68272L18.5237 18.4772C18.4618 18.9781 18.2189 19.4391 17.841 19.7736C17.4631 20.1081 16.9759 20.2931 16.4711 20.2936H7.44644C6.87922 20.2958 6.31936 20.1653 5.81168 19.9121L4.50388 19.2583" fill="black"/>
</svg>
