<svg width="22" height="22" viewBox="0 0 22 22" fill="none" xmlns="http://www.w3.org/2000/svg">
<path d="M1.75963 8.91235H5.91341V19.4137H1.75963C1.52721 19.4137 1.30431 19.3215 1.13997 19.157C0.975627 18.9927 0.883301 18.7698 0.883301 18.5374V9.78868C0.883301 9.55626 0.975627 9.33337 1.13997 9.16902C1.30431 9.00469 1.52721 8.91235 1.75963 8.91235Z" stroke="black" stroke-width="1.76661" stroke-linecap="round" stroke-linejoin="round"/>
<path d="M5.91357 8.91171L10.3653 1.79594C10.5378 1.5147 10.7803 1.28292 11.069 1.1232C11.3577 0.963482 11.6829 0.881281 12.0128 0.884567C12.2726 0.875187 12.5317 0.917991 12.7748 1.01046C13.0178 1.10292 13.2398 1.24315 13.4277 1.42289C13.6156 1.60262 13.7656 1.81818 13.8687 2.05687C13.9719 2.29554 14.0262 2.55247 14.0283 2.81248V7.91269H18.9331C19.2174 7.92191 19.4965 7.9912 19.7521 8.11603C20.0078 8.24084 20.2341 8.41833 20.4162 8.63686C20.5983 8.85539 20.7321 9.10997 20.8087 9.3839C20.8854 9.65783 20.9032 9.94489 20.861 10.2262L19.4589 18.712C19.3992 19.1954 19.1647 19.6402 18.8001 19.9629C18.4355 20.2857 17.9654 20.4641 17.4783 20.4647H8.77039C8.22308 20.4668 7.68287 20.3408 7.193 20.0965L5.9311 19.4656" stroke="black" stroke-width="1.76661" stroke-linecap="round" stroke-linejoin="round"/>
<path d="M5.91357 8.91196V18.8555" stroke="black" stroke-width="1.76661" stroke-linecap="round" stroke-linejoin="round"/>
</svg>
