<svg width="175" height="173" viewBox="0 0 175 173" fill="none" xmlns="http://www.w3.org/2000/svg">
<rect x="23" y="14" width="134.452" height="134.452" rx="25.0081" fill="#E21D3E"/>
<path d="M136.15 81.8186C146.004 90.7482 142.349 107.015 129.622 110.87L65.8957 130.174C53.3526 133.974 41.3703 122.837 44.2435 110.05L58.6274 46.0353C61.5006 33.2481 77.0954 28.3079 86.8073 37.1081L136.15 81.8186Z" fill="white"/>
<mask id="path-3-inside-1_263_1709" fill="white">
<path d="M65.7134 81.5373C65.7134 87.2232 61.1041 91.8325 55.4182 91.8325C49.7324 91.8325 45.123 87.2232 45.123 81.5373C45.123 75.8514 49.7324 71.2421 55.4182 71.2421C61.1041 71.2421 65.7134 75.8514 65.7134 81.5373ZM51.0419 81.5373C51.0419 83.9543 53.0012 85.9137 55.4182 85.9137C57.8352 85.9137 59.7946 83.9543 59.7946 81.5373C59.7946 79.1203 57.8352 77.1609 55.4182 77.1609C53.0012 77.1609 51.0419 79.1203 51.0419 81.5373Z"/>
</mask>
<path d="M65.7134 81.5373C65.7134 87.2232 61.1041 91.8325 55.4182 91.8325C49.7324 91.8325 45.123 87.2232 45.123 81.5373C45.123 75.8514 49.7324 71.2421 55.4182 71.2421C61.1041 71.2421 65.7134 75.8514 65.7134 81.5373ZM51.0419 81.5373C51.0419 83.9543 53.0012 85.9137 55.4182 85.9137C57.8352 85.9137 59.7946 83.9543 59.7946 81.5373C59.7946 79.1203 57.8352 77.1609 55.4182 77.1609C53.0012 77.1609 51.0419 79.1203 51.0419 81.5373Z" fill="#332217" stroke="#332217" stroke-width="0.823614" mask="url(#path-3-inside-1_263_1709)"/>
<circle cx="68.9734" cy="100.24" r="4.08375" fill="#332217" stroke="#332217" stroke-width="0.411807"/>
<path d="M67.197 92.2507L70.7771 67.0275C70.8251 66.6891 71.1148 66.4376 71.4566 66.4376H78.7258C79.1744 66.4376 79.5025 66.861 79.3904 67.2955L72.8811 92.5186C72.8029 92.8217 72.5296 93.0335 72.2166 93.0335H67.8766C67.4592 93.0335 67.1384 92.664 67.197 92.2507Z" fill="#332217" stroke="#332217" stroke-width="0.343172"/>
<path d="M68.4951 84.2364H65.0272V78.4025H69.1453L68.4951 84.2364Z" fill="#332217" stroke="#332217" stroke-width="0.343172"/>
<path d="M111.833 88.8016L115.034 69.7555C115.089 69.425 115.375 69.1829 115.711 69.1829H120.676C121.098 69.1829 121.42 69.5591 121.355 69.9755L119.372 82.632C119.307 83.0484 119.629 83.4246 120.05 83.4246H128.733C129.157 83.4246 129.48 83.8054 129.41 84.2238L128.609 89.0282C128.554 89.3591 128.268 89.6017 127.932 89.6017H112.51C112.085 89.6017 111.762 89.2202 111.833 88.8016Z" fill="#332217"/>
<path d="M130.69 90.7015L133.917 69.0816C133.967 68.7454 134.256 68.4966 134.596 68.4966H139.736C140.153 68.4966 140.473 68.865 140.416 69.2778L139.604 75.0936C139.547 75.5064 139.867 75.8748 140.284 75.8748H142.251C142.688 75.8748 143.013 76.2767 142.923 76.7036L142.013 80.9932C141.946 81.3103 141.666 81.5371 141.341 81.5371H139.054C138.715 81.5371 138.427 81.7838 138.376 82.1182L137.012 90.908C136.96 91.2425 136.672 91.4891 136.333 91.4891H131.369C130.95 91.4891 130.628 91.1163 130.69 90.7015Z" fill="#332217"/>
<path d="M111.833 88.8016L115.034 69.7555C115.089 69.425 115.375 69.1829 115.711 69.1829H120.676C121.098 69.1829 121.42 69.5591 121.355 69.9755L119.372 82.632C119.307 83.0484 119.629 83.4246 120.05 83.4246H128.733C129.157 83.4246 129.48 83.8054 129.41 84.2238L128.609 89.0282C128.554 89.3591 128.268 89.6017 127.932 89.6017H112.51C112.085 89.6017 111.762 89.2202 111.833 88.8016Z" stroke="#332217" stroke-width="0.343172"/>
<path d="M130.69 90.7015L133.917 69.0816C133.967 68.7454 134.256 68.4966 134.596 68.4966H139.736C140.153 68.4966 140.473 68.865 140.416 69.2778L139.604 75.0936C139.547 75.5064 139.867 75.8748 140.284 75.8748H142.251C142.688 75.8748 143.013 76.2767 142.923 76.7036L142.013 80.9932C141.946 81.3103 141.666 81.5371 141.341 81.5371H139.054C138.715 81.5371 138.427 81.7838 138.376 82.1182L137.012 90.908C136.96 91.2425 136.672 91.4891 136.333 91.4891H131.369C130.95 91.4891 130.628 91.1163 130.69 90.7015Z" stroke="#332217" stroke-width="0.343172"/>
<path d="M82.0295 104.533L85.1137 92.3503C85.1908 92.0457 85.4649 91.8324 85.7791 91.8324H90.669C91.1294 91.8324 91.4592 92.2767 91.326 92.7174L89.6305 98.3256C89.4972 98.7663 89.8271 99.2106 90.2874 99.2106H105.711C106.135 99.2106 106.458 99.5914 106.388 100.01L105.588 104.814C105.532 105.145 105.246 105.388 104.911 105.388H82.6949C82.2475 105.388 81.9197 104.967 82.0295 104.533Z" fill="#332217" stroke="#332217" stroke-width="0.343172"/>
<path d="M101.489 90.1743L105.037 68.7261C105.092 68.3947 105.379 68.1517 105.714 68.1517H110.825C111.255 68.1517 111.579 68.5424 111.5 68.9649L107.468 90.4131C107.407 90.7376 107.124 90.9727 106.794 90.9727H102.167C101.743 90.9727 101.42 90.5924 101.489 90.1743Z" fill="#332217" stroke="#332217" stroke-width="0.343172"/>
<path d="M78.7719 86.1928L89.6027 68.7855C90.0587 68.0527 91.02 67.824 91.7572 68.273L94.2644 69.8002C94.9983 70.2472 95.2378 71.2004 94.8023 71.9413L93.672 73.8641C93.4058 74.317 93.3832 74.8729 93.6117 75.3459L99.4408 87.4115C99.8317 88.2205 99.4669 89.192 98.6401 89.5437L96.9536 90.2614C96.174 90.5931 95.2716 90.2479 94.9125 89.4804L91.1768 81.4973C90.6709 80.4163 89.1928 80.27 88.4849 81.2309L82.7445 89.023C82.2295 89.722 81.2457 89.8718 80.5461 89.3578L79.9197 88.8975L79.1165 88.2458C78.5006 87.7461 78.353 86.8661 78.7719 86.1928Z" fill="#332217" stroke="#332217" stroke-width="0.786711"/>
</svg>
