<svg width="20" height="20" viewBox="0 0 20 20" fill="none" xmlns="http://www.w3.org/2000/svg">
<path d="M10.117 5.2004C11.3174 7.07701 12.9229 8.67076 14.8211 9.85958L6.75666 17.924C6.25933 18.4213 6.01043 18.6697 5.7049 18.8332C5.39937 18.9967 5.05472 19.0664 4.36506 19.2043L0.763498 19.924C0.374216 20.0019 0.178911 20.0406 0.0681851 19.9299C-0.0421849 19.8191 -0.00277426 19.6245 0.075021 19.2356L0.794748 15.635C0.932715 14.9452 1.00138 14.5997 1.16486 14.2941C1.32841 13.9886 1.57756 13.7398 2.07502 13.2424L10.117 5.2004ZM15.2488 0.243368C15.9037 -0.0811225 16.6731 -0.0811225 17.328 0.243368C17.672 0.413908 17.9911 0.732702 18.6287 1.37032C19.2668 2.00829 19.586 2.32799 19.7567 2.67208C20.0812 3.327 20.0812 4.09626 19.7567 4.75118C19.586 5.09531 19.2668 5.4149 18.6287 6.05294L16.5272 8.15352C14.5696 7.04021 12.9481 5.43019 11.8201 3.49825L13.9481 1.3713C14.586 0.733433 14.9048 0.413954 15.2488 0.243368Z" fill="black"/>
</svg>
