<svg width="29" height="29" viewBox="0 0 29 29" fill="none" xmlns="http://www.w3.org/2000/svg">
<path d="M14.0407 0C6.29024 0 0 6.29024 0 14.0407C0 21.7912 6.29024 28.0814 14.0407 28.0814C21.7912 28.0814 28.0814 21.7912 28.0814 14.0407C28.0814 6.29024 21.7912 0 14.0407 0ZM14.0407 5.61629C16.7506 5.61629 18.955 7.82068 18.955 10.5305C18.955 13.2404 16.7506 15.4448 14.0407 15.4448C11.3309 15.4448 9.12647 13.2404 9.12647 10.5305C9.12647 7.82068 11.3309 5.61629 14.0407 5.61629ZM14.0407 25.2733C11.1905 25.2733 7.82068 24.122 5.41972 21.2296C7.7926 19.3762 10.7833 18.2529 14.0407 18.2529C17.2982 18.2529 20.2888 19.3762 22.6617 21.2296C20.2608 24.122 16.891 25.2733 14.0407 25.2733Z" fill="black"/>
</svg>
