<svg width="27" height="27" viewBox="0 0 27 27" fill="none" xmlns="http://www.w3.org/2000/svg">
<path d="M12.0403 14.4896C11.825 14.2747 11.5685 14.1056 11.2861 13.9925L2.35348 10.4105C2.24683 10.3677 2.15582 10.2933 2.09266 10.1973C2.02951 10.1013 1.99724 9.98825 2.00018 9.87336C2.00313 9.75848 2.04114 9.64725 2.10913 9.5546C2.17711 9.46194 2.27181 9.39231 2.38051 9.35503L23.7827 2.03323C23.8825 1.99718 23.9905 1.9903 24.0941 2.01339C24.1977 2.03649 24.2925 2.0886 24.3676 2.16364C24.4426 2.23868 24.4947 2.33354 24.5178 2.43711C24.5409 2.54069 24.534 2.6487 24.498 2.74851L17.1762 24.1507C17.1389 24.2594 17.0693 24.3541 16.9766 24.4221C16.884 24.4901 16.7727 24.5281 16.6578 24.531C16.543 24.534 16.4299 24.5017 16.3339 24.4385C16.2379 24.3754 16.1635 24.2844 16.1207 24.1777L12.5387 15.2429C12.4251 14.9607 12.2556 14.7044 12.0403 14.4896ZM12.0403 14.4896L24.3639 2.1684" stroke="black" stroke-width="2.6172" stroke-linecap="round" stroke-linejoin="round"/>
</svg>
