<svg width="32" height="26" viewBox="0 0 32 26" fill="none" xmlns="http://www.w3.org/2000/svg">
<path d="M28.2764 0H2.82764C1.2583 0 0 1.2583 0 2.82764V19.7935C0 21.3487 1.2583 22.6212 2.82764 22.6212H9.89676V25.4488H21.2073V22.6212H28.2764C29.8317 22.6212 31.09 21.3487 31.09 19.7935L31.1041 2.82764C31.1041 1.2583 29.8317 0 28.2764 0ZM28.2764 18.6235C28.2764 19.2697 27.7526 19.7935 27.1064 19.7935H3.9977C3.3515 19.7935 2.82764 19.2697 2.82764 18.6235V3.9977C2.82764 3.3515 3.3515 2.82764 3.9977 2.82764H27.1064C27.7526 2.82764 28.2764 3.3515 28.2764 3.9977V18.6235ZM19.4295 10.2947C20.2156 10.7439 20.2156 11.8773 19.4295 12.3265L13.0612 15.9655C12.2811 16.4113 11.3106 15.848 11.3106 14.9496V7.67151C11.3106 6.77311 12.2811 6.20989 13.0612 6.65562L19.4295 10.2947Z" fill="black"/>
</svg>
