<svg width="20" height="20" viewBox="0 0 20 20" fill="none" xmlns="http://www.w3.org/2000/svg">
<g clip-path="url(#clip0_648_1511)">
<path d="M10.8332 2.49985H9.16654V10.8332H10.8332V2.49985ZM14.8582 4.30818L13.6749 5.49151C14.9915 6.54985 15.8332 8.17485 15.8332 9.99985C15.8332 13.2248 13.2249 15.8332 9.99988 15.8332C6.77488 15.8332 4.16654 13.2248 4.16654 9.99985C4.16654 8.17485 5.00821 6.54985 6.31654 5.48318L5.14154 4.30818C3.52488 5.68318 2.49988 7.71651 2.49988 9.99985C2.49988 14.1415 5.85821 17.4998 9.99988 17.4998C14.1415 17.4998 17.4999 14.1415 17.4999 9.99985C17.4999 7.71651 16.4749 5.68318 14.8582 4.30818Z" fill="black"/>
</g>
<defs>
<clipPath id="clip0_648_1511">
<rect width="20" height="20" fill="white"/>
</clipPath>
</defs>
</svg>
