<svg width="20" height="20" viewBox="0 0 20 20" fill="none" xmlns="http://www.w3.org/2000/svg">
<path d="M10 12.9792C9.76393 12.9792 9.56615 12.8992 9.40671 12.7392C9.24671 12.5797 9.16671 12.3819 9.16671 12.1458V6.18749L7.60421 7.74999C7.43754 7.91666 7.2431 7.99999 7.02087 7.99999C6.79865 7.99999 6.59726 7.90972 6.41671 7.72916C6.25004 7.56249 6.17032 7.36444 6.17754 7.135C6.18421 6.90611 6.26393 6.71527 6.41671 6.56249L9.41671 3.56249C9.50004 3.47916 9.59032 3.41999 9.68754 3.38499C9.78476 3.35055 9.88893 3.33333 10 3.33333C10.1112 3.33333 10.2153 3.35055 10.3125 3.38499C10.4098 3.41999 10.5 3.47916 10.5834 3.56249L13.5834 6.56249C13.75 6.72916 13.8298 6.92694 13.8225 7.15583C13.8159 7.38527 13.7362 7.57638 13.5834 7.72916C13.4167 7.89583 13.2189 7.98249 12.99 7.98916C12.7606 7.99638 12.5625 7.91666 12.3959 7.74999L10.8334 6.18749V12.1458C10.8334 12.3819 10.7537 12.5797 10.5942 12.7392C10.4342 12.8992 10.2362 12.9792 10 12.9792ZM5.00004 16.3125C4.54171 16.3125 4.14948 16.1494 3.82337 15.8233C3.49671 15.4967 3.33337 15.1042 3.33337 14.6458V12.9792C3.33337 12.7431 3.4131 12.545 3.57254 12.385C3.73254 12.2255 3.9306 12.1458 4.16671 12.1458C4.40282 12.1458 4.60087 12.2255 4.76087 12.385C4.92032 12.545 5.00004 12.7431 5.00004 12.9792V14.6458H15V12.9792C15 12.7431 15.08 12.545 15.24 12.385C15.3995 12.2255 15.5973 12.1458 15.8334 12.1458C16.0695 12.1458 16.2673 12.2255 16.4267 12.385C16.5867 12.545 16.6667 12.7431 16.6667 12.9792V14.6458C16.6667 15.1042 16.5037 15.4967 16.1775 15.8233C15.8509 16.1494 15.4584 16.3125 15 16.3125H5.00004Z" fill="black"/>
</svg>
