<svg width="20" height="20" viewBox="0 0 20 20" fill="none" xmlns="http://www.w3.org/2000/svg">
<path d="M1.16654 17.9998C1.16649 18.4601 1.53955 18.8332 1.99978 18.8333C2.46002 18.8333 2.83316 18.4603 2.83321 18L1.99988 17.9999L1.16654 17.9998ZM2.00022 14.9996L2.83355 14.9997L2.00022 14.9996ZM10.9999 12.8333C11.4601 12.8333 11.8332 12.4602 11.8332 11.9999C11.8332 11.5397 11.4601 11.1666 10.9999 11.1666V11.9999V12.8333ZM17.4106 15.0892C17.7361 15.4146 18.2637 15.4146 18.5891 15.0892C18.9146 14.7637 18.9146 14.2361 18.5891 13.9107L17.9999 14.4999L17.4106 15.0892ZM15.4072 10.7287C15.0817 10.4032 14.5541 10.4032 14.2286 10.7287C13.9032 11.0541 13.9032 11.5818 14.2286 11.9072L14.8179 11.3179L15.4072 10.7287ZM14.2287 13.9106C13.9033 14.236 13.9033 14.7637 14.2287 15.0891C14.5542 15.4145 15.0818 15.4145 15.4072 15.0891L14.818 14.4998L14.2287 13.9106ZM18.5892 11.9071C18.9147 11.5817 18.9147 11.054 18.5892 10.7286C18.2638 10.4032 17.7361 10.4032 17.4107 10.7286L18 11.3179L18.5892 11.9071ZM11.9999 4.99992H11.1665C11.1665 6.19654 10.1965 7.16659 8.99988 7.16659V7.99992V8.83326C11.117 8.83326 12.8332 7.11701 12.8332 4.99992H11.9999ZM8.99988 7.99992V7.16659C7.80326 7.16659 6.83321 6.19654 6.83321 4.99992H5.99988H5.16655C5.16655 7.11701 6.88279 8.83326 8.99988 8.83326V7.99992ZM5.99988 4.99992H6.83321C6.83321 3.80331 7.80326 2.83326 8.99988 2.83326V1.99992V1.16659C6.88279 1.16659 5.16655 2.88283 5.16655 4.99992H5.99988ZM8.99988 1.99992V2.83326C10.1965 2.83326 11.1665 3.80331 11.1665 4.99992H11.9999H12.8332C12.8332 2.88283 11.117 1.16659 8.99988 1.16659V1.99992ZM1.99988 17.9999L2.83321 18L2.83355 14.9997L2.00022 14.9996L1.16688 14.9995L1.16654 17.9998L1.99988 17.9999ZM5.00022 11.9999V11.1666C2.88329 11.1666 1.16712 12.8826 1.16688 14.9995L2.00022 14.9996L2.83355 14.9997C2.83368 13.8032 3.80369 12.8333 5.00022 12.8333V11.9999ZM5.00022 11.9999V12.8333H10.9999V11.9999V11.1666H5.00022V11.9999ZM17.9999 14.4999L18.5891 13.9107L16.9981 12.3197L16.4089 12.9089L15.8196 13.4982L17.4106 15.0892L17.9999 14.4999ZM16.4089 12.9089L16.9981 12.3197L15.4072 10.7287L14.8179 11.3179L14.2286 11.9072L15.8196 13.4982L16.4089 12.9089ZM14.818 14.4998L15.4072 15.0891L16.9981 13.4982L16.4089 12.9089L15.8196 12.3197L14.2287 13.9106L14.818 14.4998ZM16.4089 12.9089L16.9981 13.4982L18.5892 11.9071L18 11.3179L17.4107 10.7286L15.8196 12.3197L16.4089 12.9089Z" fill="black"/>
</svg>
