<svg width="24" height="25" viewBox="0 0 24 25" fill="none" xmlns="http://www.w3.org/2000/svg">
<path d="M18.3887 13.3838C19.3648 13.483 20.3319 13.6949 21.2686 14.0234C22.0787 14.3077 22.6201 15.0612 22.6201 15.9062V16.8076C22.6201 17.9892 21.5541 18.8976 20.3633 18.7305L20.0898 18.6914C20.0346 18.6837 19.9791 18.6782 19.9238 18.6709C19.9981 18.37 20.04 18.0552 20.04 17.7295V16.6094C20.04 15.3091 19.4067 14.1197 18.3887 13.3838ZM17.1201 5.75C19.0011 5.75025 20.5262 7.24805 20.5264 9.0957C20.5264 10.9435 19.0012 12.4421 17.1201 12.4424C16.652 12.4424 16.2058 12.3485 15.7998 12.1807C16.8404 11.1552 17.4863 9.73069 17.4863 8.1543C17.4863 7.29545 17.2938 6.48197 16.9512 5.75293C17.007 5.75026 17.0636 5.75 17.1201 5.75Z" fill="black"/>
<path d="M5.23145 13.3838C4.25532 13.483 3.28819 13.6949 2.35156 14.0234C1.54139 14.3077 1 15.0612 1 15.9062V16.8076C1 17.9892 2.06601 18.8976 3.25684 18.7305L3.53027 18.6914C3.5855 18.6837 3.64102 18.6782 3.69629 18.6709C3.62206 18.37 3.58012 18.0552 3.58008 17.7295V16.6094C3.5801 15.3091 4.21338 14.1197 5.23145 13.3838ZM6.5 5.75C4.61901 5.75025 3.09393 7.24805 3.09375 9.0957C3.09375 10.9435 4.6189 12.4421 6.5 12.4424C6.96812 12.4424 7.41431 12.3485 7.82031 12.1807C6.77969 11.1552 6.1338 9.73069 6.13379 8.1543C6.13379 7.29545 6.32634 6.48197 6.66895 5.75293C6.61315 5.75026 6.55647 5.75 6.5 5.75Z" fill="black"/>
<path fill-rule="evenodd" clip-rule="evenodd" d="M15.9867 8.15426C15.9867 5.85992 14.1268 4 11.8324 4C9.53811 4 7.67819 5.85992 7.67819 8.15426C7.67819 10.4486 9.53811 12.3085 11.8324 12.3085C14.1268 12.3085 15.9867 10.4486 15.9867 8.15426Z" fill="black"/>
<path fill-rule="evenodd" clip-rule="evenodd" d="M6.77261 14.2715C10.0446 13.1029 13.6203 13.1029 16.8923 14.2715C17.8803 14.6243 18.5399 15.5603 18.5399 16.6094V17.729C18.5399 19.196 17.2406 20.3229 15.7883 20.1154L15.4548 20.0678C13.0521 19.7245 10.6128 19.7245 8.21011 20.0678L7.87656 20.1154C6.42431 20.3229 5.125 19.196 5.125 17.729V16.6094C5.125 15.5603 5.78455 14.6243 6.77261 14.2715Z" fill="black"/>
</svg>
