<svg width="20" height="20" viewBox="0 0 20 20" fill="none" xmlns="http://www.w3.org/2000/svg">
<path d="M8.45081 9.38542C8.37536 9.57551 8.33366 9.7827 8.33362 9.99968C8.33362 10.92 9.07931 11.6665 9.99963 11.6667C10.2165 11.6667 10.4228 11.6229 10.6129 11.5475L11.8414 12.776C11.3135 13.1271 10.6811 13.3337 9.99963 13.3337L9.82874 13.3288C8.06736 13.2397 6.66663 11.7832 6.66663 9.99968C6.66669 9.3183 6.87133 8.68476 7.22229 8.15691L8.45081 9.38542ZM9.99963 6.66667C11.8405 6.66667 13.3334 8.15888 13.3336 9.99968L13.3287 10.1716C13.3202 10.3396 13.2978 10.5041 13.2653 10.6647L9.33264 6.7321C9.54806 6.68835 9.7713 6.66669 9.99963 6.66667Z" fill="black"/>
<path d="M6.31128 7.24577C5.24494 8.02665 4.37455 8.96812 3.82007 9.64128C3.73696 9.74218 3.67423 9.81805 3.6228 9.88445C3.58232 9.93672 3.5567 9.9735 3.53979 9.99968C3.55666 10.0258 3.58241 10.0627 3.6228 10.1149C3.67419 10.1813 3.73705 10.2573 3.82007 10.3581C4.38688 11.0462 5.28359 12.0156 6.38257 12.8063C7.48828 13.6018 8.72844 14.1666 9.99976 14.1667C10.8728 14.1667 11.7307 13.8997 12.5408 13.4753L13.7644 14.6989C12.6702 15.3474 11.3912 15.8327 9.99976 15.8327C8.24158 15.8326 6.66141 15.06 5.40894 14.1589C4.15002 13.253 3.14945 12.1661 2.53296 11.4176C2.2698 11.0982 1.85815 10.6573 1.85815 9.99968C1.85829 9.34205 2.26986 8.90114 2.53296 8.58171C3.10164 7.89128 3.99829 6.91486 5.12183 6.05632L6.31128 7.24577ZM9.99976 4.16667C11.7579 4.16667 13.3381 4.93945 14.5906 5.8405C15.8495 6.74624 16.85 7.83317 17.4666 8.58171C17.7297 8.90114 18.1412 9.34205 18.1414 9.99968C18.1414 10.6574 17.7297 11.0982 17.4666 11.4176C17.0609 11.9101 16.4881 12.5478 15.7859 13.1852L14.6052 12.0046C15.2551 11.4215 15.7942 10.8258 16.1794 10.3581C16.2626 10.2572 16.3253 10.1813 16.3767 10.1149C16.417 10.0629 16.4418 10.0258 16.4587 9.99968C16.4418 9.97355 16.4168 9.93627 16.3767 9.88445C16.3253 9.8181 16.2625 9.74206 16.1794 9.64128C15.6126 8.95309 14.7159 7.98369 13.6169 7.19304C12.5112 6.39764 11.271 5.83269 9.99976 5.83269C9.54056 5.83271 9.08556 5.9071 8.6394 6.03874L7.3396 4.73894C8.15931 4.39176 9.05352 4.16671 9.99976 4.16667Z" fill="black"/>
<path d="M4.16663 1.66667L17.5 15" stroke="black" stroke-width="1.66667"/>
</svg>
